<svg width="12" height="13" viewBox="0 0 12 13" fill="none" xmlns="http://www.w3.org/2000/svg">
<path d="M9.2344 11.9191C9.15547 11.9195 9.07845 11.8948 9.01432 11.8488L6.00002 9.66352L2.98572 11.8488C2.92133 11.8955 2.84374 11.9206 2.76419 11.9203C2.68464 11.92 2.60723 11.8944 2.54318 11.8472C2.47912 11.8 2.43173 11.7337 2.40785 11.6578C2.38396 11.582 2.38484 11.5004 2.41033 11.4251L3.58596 7.94298L0.539084 5.85352C0.473087 5.80831 0.423276 5.74318 0.396929 5.66765C0.370582 5.59212 0.36908 5.51014 0.392643 5.43369C0.416206 5.35724 0.463598 5.29033 0.527895 5.24274C0.592193 5.19514 0.670025 5.16936 0.750022 5.16915H4.50893L5.6433 1.67813C5.66774 1.60276 5.71542 1.53707 5.77951 1.49048C5.84359 1.44388 5.92079 1.41879 6.00002 1.41879C6.07925 1.41879 6.15645 1.44388 6.22054 1.49048C6.28462 1.53707 6.3323 1.60276 6.35674 1.67813L7.49112 5.17032H11.25C11.3301 5.17028 11.4081 5.19589 11.4726 5.24339C11.5371 5.29089 11.5847 5.3578 11.6084 5.4343C11.6321 5.51081 11.6307 5.5929 11.6044 5.66855C11.5781 5.74419 11.5282 5.80943 11.4621 5.85469L8.41408 7.94298L9.58901 11.4241C9.60804 11.4805 9.6134 11.5406 9.60463 11.5994C9.59586 11.6583 9.57322 11.7142 9.53857 11.7625C9.50393 11.8109 9.45827 11.8503 9.40539 11.8776C9.3525 11.9048 9.29389 11.919 9.2344 11.9191Z" fill="#FF859B"/>
</svg>
